<svg height="512pt" viewBox="0 -39 512 512" width="512pt" xmlns="http://www.w3.org/2000/svg"><g fill-rule="evenodd"><path d="m268.71875 308.847656v-48.242187l.058594-15.496094c.027344-7.308594-.058594-28.421875 22.015625-30.964844 53.789062-.964843 30.722656-27.894531 74.992187-27.894531 34.222656 0 40.53125 16.113281 66.433594 23.828125v-190.753906c0-10.640625-8.671875-19.324219-19.304688-19.324219-123.199218 0-208.472656 0-328.167968 0-10.632813 0-19.304688 8.683594-19.304688 19.324219v66.492187l.03125 135.726563-.03125 103.679687h205.054688c-1.078125-5.40625-1.691406-10.875-1.777344-16.375zm0 0" fill="#ffcc73"/><path d="m124.546875 221.542969-.03125-135.726563v-66.492187c0-10.640625 8.675781-19.324219 19.304687-19.324219h-59.074218c-10.628906 0-19.304688 8.683594-19.304688 19.324219v66.492187l.03125 135.726563-.03125 103.679687h59.074219zm0 0" fill="#f59556"/><path d="m181.082031 0v61.195312c0 9.183594 7.503907 16.726563 16.703125 16.726563h102.089844c9.199219 0 16.703125-7.542969 16.703125-16.726563v-61.195312zm0 0" fill="#e8e8e8"/><path d="m181.082031 0v61.195312c0 9.183594 7.503907 16.726563 16.703125 16.726563h38.519532c-9.171876 0-16.707032-7.542969-16.707032-16.726563v-61.195312zm0 0" fill="#ccc"/><path d="m46.753906 365.191406h447.433594c9.78125 0 17.8125-8.976562 17.8125-19.96875 0-10.996094-8.03125-20-17.8125-20h-476.375c-9.808594 0-17.8125 9.003906-17.8125 20 0 10.992188 8.003906 19.96875 17.8125 19.96875zm0 0" fill="#b3b3b3"/><path d="m17.8125 325.222656c-9.808594 0-17.8125 9.003906-17.8125 20 0 10.992188 8.003906 19.96875 17.8125 19.96875h32.882812c-9.785156 0-17.8125-8.976562-17.8125-19.96875 0-10.996094 8.027344-20 17.8125-20zm0 0" fill="#999"/><path d="m483.410156 214.175781c-.027344-7.3125.03125-28.421875-22.046875-30.964843-53.761719-.96875-51.308593-27.894532-95.578125-27.894532-44.269531 0-41.816406 26.925782-95.578125 27.894532-22.074219 2.542968-22.015625 23.652343-22.046875 30.964843l-.027344 94.671875c.117188 6.960938 1.050782 13.890625 2.742188 20.761719 9.753906 39.121094 44.710938 75.609375 95.230469 99.734375 14.484375 6.578125 21.226562 8.445312 39.363281 0 50.519531-24.125 85.472656-60.613281 95.226562-99.734375 1.695313-6.871094 2.628907-13.800781 2.746094-20.761719zm0 0" fill="#d0ffb5"/><path d="m365.785156 155.316406c-44.269531 0-41.816406 26.929688-95.578125 27.894532-22.074219 2.542968-22.015625 23.652343-22.046875 30.964843l-.027344 15.496094v79.175781c.117188 6.960938 1.050782 13.890625 2.742188 20.761719 9.753906 39.121094 44.710938 75.609375 95.230469 99.734375 14.484375 6.578125 21.226562 8.449219 39.363281 0 50.519531-24.125 85.472656-60.613281 95.226562-99.734375 1.695313-6.871094 2.628907-13.800781 2.746094-20.761719v-79.175781l-.03125-15.496094c-.027344-7.308593.03125-28.421875-22.046875-30.964843-53.761719-.96875-51.308593-27.894532-95.578125-27.894532zm-81.765625 83.535156c.03125-5.058593-.027343-19.734374 15.332031-21.519531 37.378907-.671875 35.65625-19.386719 66.433594-19.386719 30.78125 0 29.085938 18.714844 66.433594 19.386719 15.363281 1.78125 15.300781 16.460938 15.332031 21.519531l.03125 10.789063v55.027344c-.089843 4.851562-.730469 9.679687-1.929687 14.441406-6.773438 27.191406-31.070313 52.542969-66.171875 69.328125-12.617188 5.875-17.316407 4.558594-27.390625 0-35.101563-16.785156-59.398438-42.136719-66.171875-69.328125-1.195313-4.765625-1.839844-9.589844-1.925781-14.441406v-55.027344zm0 0" fill="#52c46d"/><path d="m332.320312 228.96875.027344-10.789062c.03125-2.132813 0-6.023438 1.167969-9.882813-7.710937 4.441406-16.644531 8.714844-34.167969 9.035156-15.359375 1.78125-15.300781 16.460938-15.332031 21.519531l-.027344 10.789063v55.027344c.089844 4.851562.730469 9.679687 1.925781 14.441406 2.804688 11.230469 8.585938 22.164063 16.910157 32.28125 11.796875 14.414063 28.675781 27.191406 49.265625 37.046875 10.074218 4.558594 14.773437 5.875 27.390625 0 10.6875-5.117188 20.382812-11.023438 28.910156-17.542969-2.421875-.675781-4.9375-1.753906-7.972656-3.132812-10.046875-4.792969-19.242188-10.316407-27.363281-16.371094-49-36.546875-40.734376-67.628906-40.734376-122.421875zm0 0" fill="#aaf589"/></g><path d="m352.785156 333.160156c-1.691406 0-3.394531-.550781-4.824218-1.679687l-23.363282-18.480469c-3.371094-2.667969-3.945312-7.566406-1.277344-10.941406 2.664063-3.378906 7.5625-3.949219 10.9375-1.28125l17.351563 13.726562 44.5-54.472656c2.722656-3.332031 7.628906-3.824219 10.957031-1.101562 3.332032 2.722656 3.824219 7.632812 1.101563 10.964843l-49.347657 60.40625c-1.539062 1.882813-3.777343 2.859375-6.035156 2.859375zm0 0" fill="#525252"/></svg>